<svg width="26" height="26" viewBox="0 0 26 26" fill="none" xmlns="http://www.w3.org/2000/svg">
<path fill-rule="evenodd" clip-rule="evenodd" d="M10.1 7C10.7906 6.99996 11.4649 7.21024 12.0331 7.60285C12.6012 7.99547 13.0364 8.5518 13.2806 9.19782C13.5248 9.84384 13.5664 10.5489 13.4 11.2192C13.2337 11.8895 12.8671 12.4932 12.3491 12.95C12.8671 13.4068 13.2337 14.0105 13.4 14.6808C13.5664 15.3511 13.5248 16.0562 13.2806 16.7022C13.0364 17.3482 12.6012 17.9045 12.0331 18.2971C11.4649 18.6898 10.7906 18.9 10.1 18.9H6.7C6.24913 18.9 5.81673 18.7209 5.49792 18.4021C5.17911 18.0833 5 17.6509 5 17.2V8.7C5 8.24913 5.17911 7.81673 5.49792 7.49792C5.81673 7.17911 6.24913 7 6.7 7H10.1ZM18.175 10.4C20.391 10.4 22 12.4128 22 14.65C22 14.8582 21.9235 15.0591 21.7852 15.2147C21.6468 15.3703 21.4562 15.4697 21.2495 15.4941L21.15 15.5H16.169C16.4733 16.5404 17.3191 17.2 18.175 17.2C19.093 17.2 19.6132 16.7657 20.079 16.2225C20.2255 16.0512 20.4341 15.9451 20.6589 15.9275C20.8836 15.91 21.1062 15.9825 21.2775 16.129C21.4488 16.2755 21.5549 16.4841 21.5725 16.7089C21.59 16.9336 21.5175 17.1562 21.371 17.3275L21.2801 17.4312L21.0854 17.6403C20.4717 18.271 19.5741 18.9 18.175 18.9C15.9591 18.9 14.35 16.8872 14.35 14.65C14.35 12.4128 15.9591 10.4 18.175 10.4ZM10.1 13.8H6.7V17.2H10.1C10.5411 17.202 10.9658 17.0324 11.2842 16.7271C11.6026 16.4218 11.7899 16.0046 11.8064 15.5638C11.823 15.123 11.6675 14.693 11.3729 14.3646C11.0783 14.0363 10.6675 13.8354 10.2275 13.8043L10.1 13.8ZM18.175 12.1C17.3191 12.1 16.4733 12.7596 16.169 13.8H20.181C19.8767 12.7596 19.031 12.1 18.175 12.1ZM10.1 8.7H6.7V12.1H10.1C10.5509 12.1 10.9833 11.9209 11.3021 11.6021C11.6209 11.2833 11.8 10.8509 11.8 10.4C11.8 9.94913 11.6209 9.51673 11.3021 9.19792C10.9833 8.87911 10.5509 8.7 10.1 8.7ZM19.45 7.85C19.6754 7.85 19.8916 7.93955 20.051 8.09896C20.2104 8.25837 20.3 8.47457 20.3 8.7C20.3 8.92543 20.2104 9.14163 20.051 9.30104C19.8916 9.46045 19.6754 9.55 19.45 9.55H16.9C16.6746 9.55 16.4584 9.46045 16.299 9.30104C16.1396 9.14163 16.05 8.92543 16.05 8.7C16.05 8.47457 16.1396 8.25837 16.299 8.09896C16.4584 7.93955 16.6746 7.85 16.9 7.85H19.45Z" fill="#FFFAE8"/>
<circle cx="13" cy="13" r="12.5" stroke="#FFFAE8"/>
</svg>
