<svg width="26" height="26" viewBox="0 0 26 26" fill="none" xmlns="http://www.w3.org/2000/svg">
<path d="M13 4.33337C8.21165 4.33337 4.33331 8.21171 4.33331 13C4.33331 16.835 6.81415 20.0742 10.2591 21.2225C10.6925 21.2984 10.855 21.0384 10.855 20.8109C10.855 20.605 10.8441 19.9225 10.8441 19.1967C8.66665 19.5975 8.10331 18.6659 7.92998 18.1784C7.83248 17.9292 7.40998 17.16 7.04165 16.9542C6.73831 16.7917 6.30498 16.3909 7.03081 16.38C7.71331 16.3692 8.20081 17.0084 8.36331 17.2684C9.14331 18.5792 10.3891 18.2109 10.8875 17.9834C10.9633 17.42 11.1908 17.0409 11.44 16.8242C9.51165 16.6075 7.49665 15.86 7.49665 12.545C7.49665 11.6025 7.83248 10.8225 8.38498 10.2159C8.29831 9.99921 7.99498 9.11087 8.47165 7.91921C8.47165 7.91921 9.19748 7.69171 10.855 8.80754C11.5483 8.61254 12.285 8.51504 13.0216 8.51504C13.7583 8.51504 14.495 8.61254 15.1883 8.80754C16.8458 7.68087 17.5716 7.91921 17.5716 7.91921C18.0483 9.11087 17.745 9.99921 17.6583 10.2159C18.2108 10.8225 18.5466 11.5917 18.5466 12.545C18.5466 15.8709 16.5208 16.6075 14.5925 16.8242C14.9066 17.095 15.1775 17.615 15.1775 18.4275C15.1775 19.5867 15.1666 20.5184 15.1666 20.8109C15.1666 21.0384 15.3291 21.3092 15.7625 21.2225C17.4832 20.6421 18.9785 19.5365 20.0377 18.0614C21.097 16.5863 21.6667 14.816 21.6666 13C21.6666 8.21171 17.7883 4.33337 13 4.33337Z" fill="#FFFAE8"/>
<circle cx="13" cy="13" r="12.5" stroke="#FFFAE8"/>
</svg>
