<svg width="26" height="26" viewBox="0 0 26 26" fill="none" xmlns="http://www.w3.org/2000/svg">
<path d="M13 4.33337C10.6481 4.33337 10.3523 4.34421 9.42823 4.38537C8.50415 4.42871 7.87473 4.57387 7.32331 4.78837C6.74464 5.00539 6.22063 5.34672 5.78823 5.78829C5.34666 6.22069 5.00533 6.74471 4.78831 7.32337C4.57381 7.87371 4.42756 8.50421 4.38531 9.42504C4.34415 10.3513 4.33331 10.646 4.33331 13.0011C4.33331 15.3541 4.34415 15.6488 4.38531 16.5729C4.42865 17.4959 4.57381 18.1253 4.78831 18.6767C5.0104 19.2465 5.30615 19.7297 5.78823 20.2118C6.26923 20.6939 6.7524 20.9907 7.32223 21.2117C7.87473 21.4262 8.50306 21.5725 9.42606 21.6147C10.3512 21.6559 10.6459 21.6667 13 21.6667C15.3541 21.6667 15.6476 21.6559 16.5728 21.6147C17.4947 21.5714 18.1263 21.4262 18.6777 21.2117C19.256 20.9945 19.7796 20.6532 20.2117 20.2118C20.6938 19.7297 20.9896 19.2465 21.2116 18.6767C21.4251 18.1253 21.5713 17.4959 21.6146 16.5729C21.6558 15.6488 21.6666 15.3541 21.6666 13C21.6666 10.646 21.6558 10.3513 21.6146 9.42612C21.5713 8.50421 21.4251 7.87371 21.2116 7.32337C20.9946 6.74471 20.6533 6.22069 20.2117 5.78829C19.7793 5.34672 19.2553 5.00539 18.6766 4.78837C18.1241 4.57387 17.4936 4.42762 16.5717 4.38537C15.6466 4.34421 15.353 4.33337 12.9978 4.33337H13ZM12.2232 5.89554H13.0011C15.3151 5.89554 15.5891 5.90312 16.5024 5.94537C17.3474 5.98329 17.8067 6.12521 18.1122 6.24329C18.5163 6.40037 18.8056 6.58887 19.1089 6.89221C19.4122 7.19554 19.5996 7.48371 19.7567 7.88887C19.8759 8.19329 20.0167 8.65262 20.0546 9.49762C20.0969 10.4109 20.1056 10.685 20.1056 12.9979C20.1056 15.3108 20.0969 15.586 20.0546 16.4992C20.0167 17.3442 19.8748 17.8025 19.7567 18.108C19.6168 18.4838 19.3952 18.8238 19.1078 19.1035C18.8045 19.4069 18.5163 19.5943 18.1111 19.7514C17.8078 19.8705 17.3485 20.0114 16.5024 20.0504C15.5891 20.0915 15.3151 20.1013 13.0011 20.1013C10.6871 20.1013 10.4119 20.0915 9.49865 20.0504C8.65365 20.0114 8.1954 19.8705 7.8899 19.7514C7.5138 19.6119 7.17338 19.3906 6.89323 19.1035C6.60536 18.8236 6.38334 18.4832 6.24323 18.1069C6.12515 17.8025 5.98323 17.3431 5.94531 16.4981C5.90415 15.5849 5.89548 15.3108 5.89548 12.9957C5.89548 10.6806 5.90415 10.4087 5.94531 9.49546C5.98431 8.65046 6.12515 8.19112 6.24431 7.88562C6.4014 7.48154 6.5899 7.19229 6.89323 6.88896C7.19656 6.58562 7.48473 6.39821 7.8899 6.24112C8.1954 6.12196 8.65365 5.98112 9.49865 5.94212C10.2981 5.90529 10.608 5.89446 12.2232 5.89337V5.89554ZM17.6269 7.33421C17.4903 7.33421 17.3551 7.36111 17.2289 7.41337C17.1027 7.46564 16.9881 7.54224 16.8915 7.63882C16.7949 7.73539 16.7183 7.85004 16.6661 7.97622C16.6138 8.1024 16.5869 8.23763 16.5869 8.37421C16.5869 8.51078 16.6138 8.64602 16.6661 8.7722C16.7183 8.89838 16.7949 9.01303 16.8915 9.1096C16.9881 9.20617 17.1027 9.28278 17.2289 9.33504C17.3551 9.38731 17.4903 9.41421 17.6269 9.41421C17.9027 9.41421 18.1672 9.30464 18.3623 9.1096C18.5573 8.91456 18.6669 8.65003 18.6669 8.37421C18.6669 8.09838 18.5573 7.83385 18.3623 7.63882C18.1672 7.44378 17.9027 7.33421 17.6269 7.33421ZM13.0011 8.54971C12.4107 8.5405 11.8244 8.64882 11.2764 8.86836C10.7283 9.0879 10.2294 9.41428 9.80864 9.8285C9.38791 10.2427 9.05379 10.7365 8.82572 11.2811C8.59766 11.8257 8.48021 12.4102 8.48021 13.0006C8.48021 13.591 8.59766 14.1755 8.82572 14.7201C9.05379 15.2647 9.38791 15.7585 9.80864 16.1727C10.2294 16.5869 10.7283 16.9133 11.2764 17.1328C11.8244 17.3523 12.4107 17.4607 13.0011 17.4515C14.1695 17.4332 15.2839 16.9563 16.1037 16.1236C16.9235 15.2908 17.383 14.1691 17.383 13.0006C17.383 11.832 16.9235 10.7103 16.1037 9.8776C15.2839 9.04488 14.1695 8.56794 13.0011 8.54971ZM13.0011 10.1108C13.3805 10.1108 13.7562 10.1855 14.1067 10.3307C14.4573 10.4759 14.7758 10.6887 15.0441 10.957C15.3124 11.2253 15.5252 11.5438 15.6704 11.8944C15.8156 12.2449 15.8903 12.6206 15.8903 13C15.8903 13.3795 15.8156 13.7552 15.6704 14.1057C15.5252 14.4562 15.3124 14.7748 15.0441 15.043C14.7758 15.3113 14.4573 15.5242 14.1067 15.6694C13.7562 15.8146 13.3805 15.8893 13.0011 15.8893C12.2348 15.8893 11.4999 15.5849 10.9581 15.043C10.4162 14.5012 10.1118 13.7663 10.1118 13C10.1118 12.2338 10.4162 11.4989 10.9581 10.957C11.4999 10.4152 12.2348 10.1108 13.0011 10.1108Z" fill="#FFFAE8"/>
<circle cx="13" cy="13" r="12.5" stroke="#FFFAE8"/>
</svg>
