<svg width="26" height="26" viewBox="0 0 26 26" fill="none" xmlns="http://www.w3.org/2000/svg">
<path d="M11.7553 16.2563C11.2818 18.8073 10.7053 21.2536 8.99465 22.531C8.46778 18.6754 9.77046 15.779 10.375 12.7048C9.34372 10.9174 10.4995 7.3191 12.6743 8.20533C15.3508 9.29651 10.3563 14.8516 13.7094 15.546C17.2103 16.2703 18.6402 9.29183 16.4691 7.02151C13.3322 3.74517 7.33824 6.94758 8.07567 11.6389C8.25535 12.7862 9.40548 13.1343 8.53516 14.7178C6.52781 14.2583 5.92888 12.6281 6.00656 10.4541C6.13008 6.89798 9.1107 4.4068 12.0997 4.06242C15.8805 3.62632 19.4282 5.49143 19.9176 9.15332C20.4698 13.2859 18.2116 17.7629 14.1698 17.4401C13.0739 17.3531 12.6135 16.7944 11.7553 16.2563Z" fill="#FFFAE8"/>
<circle cx="13" cy="13" r="12.5" stroke="#FFFAE8"/>
</svg>
