<svg width="80" height="80" viewBox="0 0 80 80" fill="none" xmlns="http://www.w3.org/2000/svg">
<circle cx="40" cy="40" r="40" fill="#FCE219"/>
<path d="M49.8462 13H30.1538C26.7569 13 24 15.7491 24 19.1364V60.8636C24 64.2509 26.7569 67 30.1538 67H49.8462C53.2431 67 56 64.2509 56 60.8636V19.1364C56 15.7491 53.2431 13 49.8462 13ZM40 64.5455C37.9569 64.5455 36.3077 62.9009 36.3077 60.8636C36.3077 58.8264 37.9569 57.1818 40 57.1818C42.0431 57.1818 43.6923 58.8264 43.6923 60.8636C43.6923 62.9009 42.0431 64.5455 40 64.5455ZM51.0769 54.7273H28.9231V20.3636H51.0769V54.7273Z" fill="black"/>
</svg>
