<svg width="26" height="26" viewBox="0 0 26 26" fill="none" xmlns="http://www.w3.org/2000/svg">
<path fill-rule="evenodd" clip-rule="evenodd" d="M19.5326 6.81449C19.6055 6.73117 19.6612 6.63431 19.6967 6.52945C19.7321 6.42459 19.7465 6.31377 19.7391 6.20334C19.7317 6.0929 19.7027 5.985 19.6536 5.88579C19.6045 5.78659 19.5363 5.69803 19.453 5.62517C19.3697 5.5523 19.2728 5.49657 19.168 5.46113C19.0631 5.4257 18.9523 5.41127 18.8419 5.41866C18.7314 5.42606 18.6235 5.45513 18.5243 5.50423C18.4251 5.55332 18.3366 5.62147 18.2637 5.70479L13.958 10.6255L10.3037 5.75366C10.2252 5.64902 10.1235 5.56408 10.0065 5.50558C9.88947 5.44708 9.76046 5.41663 9.62965 5.41663H6.25928C6.1028 5.41663 5.94941 5.4602 5.8163 5.54247C5.68319 5.62473 5.57562 5.74244 5.50564 5.8824C5.43566 6.02236 5.40604 6.17904 5.42009 6.33489C5.43414 6.49074 5.49132 6.63959 5.58521 6.76477L11.009 13.9959L6.4674 19.1863C6.39454 19.2696 6.3388 19.3664 6.30337 19.4713C6.26793 19.5762 6.2535 19.687 6.2609 19.7974C6.26829 19.9079 6.29736 20.0158 6.34646 20.115C6.39555 20.2142 6.46371 20.3027 6.54703 20.3756C6.63035 20.4485 6.7272 20.5042 6.83206 20.5396C6.93692 20.5751 7.04774 20.5895 7.15818 20.5821C7.26861 20.5747 7.37652 20.5456 7.47572 20.4965C7.57492 20.4474 7.66348 20.3793 7.73634 20.296L12.042 15.3744L15.6963 20.2463C15.7748 20.3509 15.8766 20.4358 15.9936 20.4943C16.1106 20.5528 16.2396 20.5833 16.3704 20.5833H19.7408C19.8972 20.5833 20.0506 20.5397 20.1837 20.4575C20.3168 20.3752 20.4244 20.2575 20.4944 20.1175C20.5644 19.9776 20.594 19.8209 20.5799 19.665C20.5659 19.5092 20.5087 19.3603 20.4148 19.2351L14.9911 12.004L19.5326 6.81449ZM16.7917 18.8981L7.94446 7.10181H9.20835L18.0556 18.8981H16.7917Z" fill="#FFFAE8"/>
<circle cx="13" cy="13" r="12.5" stroke="#FFFAE8"/>
</svg>
